<svg xmlns="http://www.w3.org/2000/svg" width="21.885" height="24" viewBox="0 0 21.885 24">
  <g id="bmi" transform="translate(-4 -3)">
    <circle id="Ellipse_2" data-name="Ellipse 2" cx="0.5" cy="0.5" r="0.5" transform="translate(19.942 24.667)" fill="#083770"/>
    <circle id="Ellipse_3" data-name="Ellipse 3" cx="0.5" cy="0.5" r="0.5" transform="translate(19.942 21.4)" fill="#083770"/>
    <path id="Path_3" data-name="Path 3" d="M24.517,40.976A10.161,10.161,0,0,0,22.14,43.3a1.827,1.827,0,0,1-1.14.767V48.8h3.589a1.159,1.159,0,0,1-.072-.391Z" transform="translate(-10.356 -21.801)" fill="#083770"/>
    <path id="Path_4" data-name="Path 4" d="M31.736,16.034v-5.08A1.956,1.956,0,0,0,29.782,9h-.391v1.4l.31.31a2.945,2.945,0,0,1,.217,3.923l-.22.274a3.186,3.186,0,0,0-.307,3.517V17.207a1.172,1.172,0,0,1,1.172-1.172Z" transform="translate(-15.231 -3.655)" fill="#083770"/>
    <path id="Path_5" data-name="Path 5" d="M37.2,33H37v1.172h.2A.586.586,0,0,0,37.2,33Z" transform="translate(-20.103 -17.549)" fill="#083770"/>
    <circle id="Ellipse_4" data-name="Ellipse 4" cx="0.5" cy="0.5" r="0.5" transform="translate(16.942 21.4)" fill="#083770"/>
    <path id="Path_6" data-name="Path 6" d="M37.2,38H37v1.172h.2A.586.586,0,0,0,37.2,38Z" transform="translate(-20.103 -20.473)" fill="#083770"/>
    <circle id="Ellipse_5" data-name="Ellipse 5" cx="0.5" cy="0.5" r="0.5" transform="translate(22.942 24.667)" fill="#083770"/>
    <path id="Path_7" data-name="Path 7" d="M6.736,16.9a3.2,3.2,0,0,0-.7-1.99l-.22-.274a2.946,2.946,0,0,1,.217-3.923l.31-.311V9H5.954A1.956,1.956,0,0,0,4,10.954V17.6H6.657A3.228,3.228,0,0,0,6.736,16.9Z" transform="translate(0 -3.655)" fill="#083770"/>
    <circle id="Ellipse_6" data-name="Ellipse 6" cx="0.5" cy="0.5" r="0.5" transform="translate(22.942 21.4)" fill="#083770"/>
    <path id="Path_8" data-name="Path 8" d="M16.391,6.517h2.345a.391.391,0,0,0,.391-.391V4.521A2.73,2.73,0,0,1,18.373,3H16.754A2.73,2.73,0,0,1,16,4.521V6.126A.391.391,0,0,0,16.391,6.517Z" transform="translate(-7.31)" fill="#083770"/>
    <circle id="Ellipse_7" data-name="Ellipse 7" cx="0.5" cy="0.5" r="0.5" transform="translate(16.942 24.667)" fill="#083770"/>
    <path id="Path_9" data-name="Path 9" d="M14.062,22.961a10.966,10.966,0,0,1,3.018-2.819V19.3l-.009-.01a3.967,3.967,0,0,1-.294-5.284l.22-.274a2.164,2.164,0,0,0-.159-2.882l-.424-.424a.391.391,0,0,1-.115-.277V8.555a2.708,2.708,0,0,1-.782-.234V9.368a1.172,1.172,0,0,1-1.172,1.172H12a1.172,1.172,0,0,1-1.172-1.172V8.321a2.708,2.708,0,0,1-.782.234V10.15a.391.391,0,0,1-.114.276l-.424.424a2.164,2.164,0,0,0-.159,2.882l.22.274a3.982,3.982,0,0,1,.869,2.479,3.941,3.941,0,0,1-1.162,2.8,5.46,5.46,0,0,0-.483.562,11.046,11.046,0,0,1,3.481,3.1,1.07,1.07,0,0,0,1.789.013Z" transform="translate(-2.919 -3.242)" fill="#083770"/>
    <path id="Path_10" data-name="Path 10" d="M9.931,42.388A10.247,10.247,0,0,0,6.661,39.5,5.343,5.343,0,0,0,6,42.083,20.9,20.9,0,0,0,6.335,45.8l.382,2.1H11.08V43.168A1.844,1.844,0,0,1,9.931,42.388Z" transform="translate(-1.218 -20.902)" fill="#083770"/>
    <path id="Path_11" data-name="Path 11" d="M42.552,29H32.391a.391.391,0,0,0-.391.391V41.115a.391.391,0,0,0,.391.391H42.552a.391.391,0,0,0,.391-.391V29.391A.391.391,0,0,0,42.552,29ZM34.345,40.724a1.172,1.172,0,1,1,1.172-1.172,1.172,1.172,0,0,1-1.172,1.172Zm0-3.126a1.172,1.172,0,1,1,1.172-1.172A1.172,1.172,0,0,1,34.345,37.6ZM35.517,33.1a1.368,1.368,0,0,1-1.368,1.368h-.586a.391.391,0,0,1-.391-.391V30.172a.391.391,0,0,1,.391-.391h.586a1.368,1.368,0,0,1,.956,2.345,1.363,1.363,0,0,1,.412.977Zm1.954,7.621a1.172,1.172,0,1,1,1.172-1.172,1.172,1.172,0,0,1-1.172,1.172Zm0-3.126a1.172,1.172,0,1,1,1.172-1.172A1.172,1.172,0,0,1,37.471,37.6Zm1.563-3.126h-.782V32.076l-.422.986a.391.391,0,0,1-.718,0l-.422-.986v2.395h-.782v-4.3a.391.391,0,0,1,.75-.154l.813,1.9.813-1.9a.391.391,0,0,1,.75.154ZM40.6,40.724a1.172,1.172,0,1,1,1.172-1.172A1.172,1.172,0,0,1,40.6,40.724Zm0-3.126a1.172,1.172,0,1,1,1.172-1.172A1.172,1.172,0,0,1,40.6,37.6Zm1.172-7.034h-.782V33.69h.782v.782H39.425V33.69h.782V30.563h-.782v-.782H41.77Z" transform="translate(-17.057 -14.506)" fill="#083770"/>
  </g>
</svg>
