<svg xmlns="http://www.w3.org/2000/svg" width="18.493" height="18.913" viewBox="0 0 18.493 18.913">
  <g id="calendar" transform="translate(-5.411)">
    <path id="Path_15" data-name="Path 15" d="M119.391,258.671a.429.429,0,0,0-.429-.429h-1.5a.429.429,0,0,0-.429.429v1.5a.429.429,0,0,0,.429.429h1.5a.429.429,0,0,0,.429-.429Zm3.744,0a.429.429,0,0,0-.429-.429h-1.5a.429.429,0,0,0-.429.429v1.5a.429.429,0,0,0,.429.429h1.5a.429.429,0,0,0,.429-.429Zm3.744,0a.429.429,0,0,0-.429-.429h-1.5a.429.429,0,0,0-.429.429v1.5a.429.429,0,0,0,.429.429h1.5a.429.429,0,0,0,.429-.429Zm-7.488,3.744a.429.429,0,0,0-.429-.429h-1.5a.429.429,0,0,0-.429.429v1.5a.429.429,0,0,0,.429.429h1.5a.429.429,0,0,0,.429-.429Zm3.744,0a.429.429,0,0,0-.429-.429h-1.5a.429.429,0,0,0-.429.429v1.5a.429.429,0,0,0,.429.429h1.5a.429.429,0,0,0,.429-.429Zm3.744,0a.429.429,0,0,0-.429-.429h-1.5a.429.429,0,0,0-.429.429v1.5a.429.429,0,0,0,.429.429h1.5a.429.429,0,0,0,.429-.429v-1.5Z" transform="translate(-107.299 -248.237)" fill="#083770"/>
    <path id="Path_16" data-name="Path 16" d="M22.258,54.15v2.288a1.869,1.869,0,0,1-1.873,1.867H19.2a1.878,1.878,0,0,1-1.884-1.867v-2.3H12v2.3a1.878,1.878,0,0,1-1.884,1.867H8.93a1.869,1.869,0,0,1-1.873-1.867V54.15a1.7,1.7,0,0,0-1.646,1.694V69.252a1.7,1.7,0,0,0,1.7,1.705h15.1a1.706,1.706,0,0,0,1.7-1.705V55.844A1.7,1.7,0,0,0,22.258,54.15Zm-.549,14.267a.733.733,0,0,1-.733.733H8.306a.733.733,0,0,1-.733-.733V61.491a.733.733,0,0,1,.733-.733h12.67a.733.733,0,0,1,.733.733v6.925Z" transform="translate(0 -52.044)" fill="#083770"/>
    <path id="Path_17" data-name="Path 17" d="M80.192,5.034h1.169A.642.642,0,0,0,82,4.393V.642A.642.642,0,0,0,81.361,0H80.192a.642.642,0,0,0-.642.642V4.393A.642.642,0,0,0,80.192,5.034Zm10.263,0h1.169a.642.642,0,0,0,.642-.642V.642A.642.642,0,0,0,91.624,0H90.456a.642.642,0,0,0-.642.642V4.393A.642.642,0,0,0,90.456,5.034Z" transform="translate(-71.267)" fill="#083770"/>
  </g>
</svg>
