<svg xmlns="http://www.w3.org/2000/svg" width="36.491" height="36.706" viewBox="0 0 36.491 36.706">
  <path id="Fill_1" data-name="Fill 1" d="M22.247,36.706H14.226a3.337,3.337,0,0,1-2.554-1.091,3.868,3.868,0,0,1-.848-2.555v-.767l-.507.3a3.441,3.441,0,0,1-2.052.666,3.61,3.61,0,0,1-3.107-1.766L.6,25a.5.5,0,0,1-.056-.068,3.9,3.9,0,0,1-.465-2.765,3.472,3.472,0,0,1,1.613-2.3L4.266,18.2,1.874,16.562a.159.159,0,0,1-.037-.029,3.774,3.774,0,0,1-.8-5.007l.009-.012a.142.142,0,0,0,.021-.035L5.406,4.968a3.548,3.548,0,0,1,3.087-1.7,3.89,3.89,0,0,1,1.992.545.163.163,0,0,0,.028.02.159.159,0,0,1,.038.029l.522.36V3.646a3.892,3.892,0,0,1,.837-2.554A3.326,3.326,0,0,1,14.469,0H22.5a3.3,3.3,0,0,1,2.554,1.092,3.865,3.865,0,0,1,.843,2.554v.525l.51-.305a3.462,3.462,0,0,1,2.05-.66,3.586,3.586,0,0,1,3.1,1.763h.01L35.9,11.479a.1.1,0,0,0,.039.047,3.688,3.688,0,0,1-1.15,5.07l-2.525,1.633,2.554,1.652.022.015a.173.173,0,0,1,.044.035,3.5,3.5,0,0,1,1.35,2.3,4.063,4.063,0,0,1-.55,2.7.228.228,0,0,1-.014.023.193.193,0,0,0-.015.026l-4.348,6.514a3.53,3.53,0,0,1-3.076,1.693,3.863,3.863,0,0,1-1.985-.545l-.6-.35v.758a3.832,3.832,0,0,1-.837,2.564A3.334,3.334,0,0,1,22.247,36.706Zm-10.2-7.78a1.186,1.186,0,0,1,.593.159,1.212,1.212,0,0,1,.615,1.052v2.914a1.472,1.472,0,0,0,.26.979c.131.153.285.236.722.236h8.011c.476,0,.609-.107.722-.236a1.473,1.473,0,0,0,.258-.979V30.137a1.215,1.215,0,0,1,.615-1.052,1.193,1.193,0,0,1,.594-.159,1.234,1.234,0,0,1,.631.175l2.43,1.453a1.676,1.676,0,0,0,.836.275,1.022,1.022,0,0,0,.893-.588.1.1,0,0,0,.036-.041l0,0,4.348-6.524a1.344,1.344,0,0,0-.18-1.793l-4.064-2.62a1.223,1.223,0,0,1,0-2.044l4.139-2.664a.028.028,0,0,1,.029-.032c.654-.4.76-.982.313-1.735L29.5,6.266a.292.292,0,0,0-.029-.046A1.254,1.254,0,0,0,28.4,5.7a.926.926,0,0,0-.547.142.332.332,0,0,0-.061.033.391.391,0,0,1-.053.03L25.3,7.362a1.169,1.169,0,0,1-.626.178,1.207,1.207,0,0,1-1.215-1.226V3.646a1.526,1.526,0,0,0-.246-.977c-.133-.155-.288-.238-.722-.238H14.469c-.437,0-.587.084-.712.238a1.518,1.518,0,0,0-.262.977V6.56a1.213,1.213,0,0,1-.648,1.087,1.242,1.242,0,0,1-.565.137,1.206,1.206,0,0,1-.694-.217L9.231,5.916H9.222a1.662,1.662,0,0,0-.836-.278,1.029,1.029,0,0,0-.892.582.137.137,0,0,1-.039.046L3.116,12.782a1.348,1.348,0,0,0,.182,1.8l3.845,2.642a1.233,1.233,0,0,1-.029,2.032L2.985,21.923a.147.147,0,0,1-.021.016l-.018.013a1.1,1.1,0,0,0-.558.663,1.4,1.4,0,0,0,.245,1.055v.01L7.2,30.166l.017.025a.435.435,0,0,1,.031.05,1.283,1.283,0,0,0,1.09.519.92.92,0,0,0,.542-.139.566.566,0,0,0,.1-.066L11.414,29.1A1.244,1.244,0,0,1,12.047,28.925ZM18.356,31.6a1.151,1.151,0,0,1-1.216-1.216v-3.42l-2.914-.712h-.238a2.751,2.751,0,0,1,0-4.861h.238l2.914-.19V19.075l-1.7-.36a2.872,2.872,0,0,1-2.187-2.432,3.065,3.065,0,0,1,1.456-2.677h.245l2.185-.491v-2.62l-.969-.289a1.014,1.014,0,0,1-.729-1.448,1.308,1.308,0,0,1,1.082-.8,1.171,1.171,0,0,1,.377.066l.25.075V6.077a1.151,1.151,0,0,1,1.215-1.216,1.3,1.3,0,0,1,1.206,1.216V8.917l1.708.562a.234.234,0,0,1,.236.243,2.987,2.987,0,0,1,1.216,2.43,2.73,2.73,0,0,1-1.452,2.187h-.248l-1.461.328v2.44L22,17.5a2.871,2.871,0,0,1,2.192,2.433,2.436,2.436,0,0,1-1.462,2.676H22.5l-2.924.192v2.353l3.407.855c.511.26.958.751.732,1.216a1.234,1.234,0,0,1-1.215.967h-.248l-2.676-.643v2.838A1.151,1.151,0,0,1,18.356,31.6ZM17.15,22.959l-1.947.133-.028.027c-.221.218-.221.218-.221.457a.74.74,0,0,0,.248.483l1.947.484Zm2.431-3.391v1.463l1.944-.134a.735.735,0,0,0,.247-.483.487.487,0,0,0-.493-.483ZM17.15,15.23l-1.453.326a.748.748,0,0,0-.246.481.483.483,0,0,0,.484.493l1.215.192Zm2.431-4.017v1.351l.732-.172c.245-.238.245-.238.245-.481a.772.772,0,0,0-.245-.489Z" fill="#083770"/>
</svg>
