<svg xmlns="http://www.w3.org/2000/svg" width="37.379" height="37.379" viewBox="0 0 37.379 37.379">
  <g id="ICON" transform="translate(0.3 0.3)">
    <path id="Fill_1" data-name="Fill 1" d="M36.3,36.779H.48A.48.48,0,0,1,0,36.3v-.631A6.962,6.962,0,0,1,6.924,28.7h3.111A12.612,12.612,0,0,1,9,27.776a13.277,13.277,0,0,1-.328-18.43L5.389,6.061a.451.451,0,0,1-.144-.336.481.481,0,0,1,.144-.336,18.367,18.367,0,0,1,26,.008.449.449,0,0,1,.143.335.481.481,0,0,1-.143.336L28.1,9.354a13.256,13.256,0,0,1-.335,18.422,12.767,12.767,0,0,1-1.032.928h3.111a6.975,6.975,0,0,1,6.931,6.965V36.3A.48.48,0,0,1,36.3,36.779ZM6.932,29.663A6.021,6.021,0,0,0,.959,35.668v.151H35.82v-.151a6.021,6.021,0,0,0-5.972-6.005H27.041a9.432,9.432,0,0,1-17.3,0Zm3.861,0a8.474,8.474,0,0,0,15.192,0h-.48a4.452,4.452,0,0,1-3.166-2.1,6.752,6.752,0,0,1-3.95,1.384A6.933,6.933,0,0,1,14.3,27.6a3.84,3.84,0,0,1-3.022,2.062Zm9.995-20.7a.491.491,0,0,1,.4.208c1.674,2.4,4.545,5.789,5.685,5.789a3.708,3.708,0,0,1,2.558.752,3.4,3.4,0,0,1,.648,2.562v.221c0,1.966-2.014,3.423-3.822,3.5a13.712,13.712,0,0,1-1.631,3.19,10.757,10.757,0,0,1-1.543,1.767,4.149,4.149,0,0,0,2.1,1.7A12.387,12.387,0,0,0,27.1,27.1a12.316,12.316,0,0,0,0-17.414c-1.867-1.861-4.372-2.009-7.451-2.009H17.718l-.806,0c-2.856,0-5.371.151-7.229,2.01a12.314,12.314,0,0,0,0,17.414,11.64,11.64,0,0,0,1.927,1.559,3.308,3.308,0,0,0,1.943-1.679A9.837,9.837,0,0,1,12,25.17a13.331,13.331,0,0,1-1.559-3.191c-1.8-.119-3.735-1.552-3.735-3.494V18.3a3.454,3.454,0,0,1,.648-2.6,3.714,3.714,0,0,1,2.559-.751,12.013,12.013,0,0,0,7.979-2.847,11.312,11.312,0,0,0,2.471-2.886.477.477,0,0,1,.4-.256Zm.024,1.336a12.915,12.915,0,0,1-2.263,2.5A13.034,13.034,0,0,1,10.4,15.9c.094,4.616,1.537,8.455,3.958,10.53h.007a.543.543,0,0,1,.176.152,6,6,0,0,0,3.846,1.4,6.916,6.916,0,0,0,5.445-3.35,16.023,16.023,0,0,0,2.542-8.8c-.917-.281-2.107-1.291-3.638-3.086C22.13,12.032,21.5,11.232,20.813,10.3Zm6.532,5.645a19.94,19.94,0,0,1-.759,5.045,2.926,2.926,0,0,0,2.534-2.51v-.185a2.808,2.808,0,0,0-.367-1.918A2.1,2.1,0,0,0,27.344,15.943Zm-17.9.007a2.114,2.114,0,0,0-1.408.432c-.376.376-.376,1.095-.376,1.927v.184a2.9,2.9,0,0,0,2.463,2.486A21.466,21.466,0,0,1,9.443,15.951ZM19.858,6.714c2.8,0,5.492.15,7.566,1.961l2.943-2.943a17.414,17.414,0,0,0-23.955,0l2.95,2.943c2.077-1.812,4.744-1.96,7.762-1.96h1.937Z" transform="translate(0 0)" fill="#083770" stroke="#083770" stroke-miterlimit="10" stroke-width="0.6"/>
    <path id="Fill_3" data-name="Fill 3" d="M3.865,1.932a.484.484,0,0,1-.483.483H2.415v.966a.483.483,0,0,1-.966,0V2.415H.483a.483.483,0,0,1,0-.966h.966V.483a.483.483,0,0,1,.966,0v.966h.966a.484.484,0,0,1,.483.483" transform="translate(16.159 1.774)" fill="#083770" stroke="#083770" stroke-miterlimit="10" stroke-width="0.6"/>
  </g>
</svg>
