<svg xmlns="http://www.w3.org/2000/svg" width="17.693" height="24" viewBox="0 0 17.693 24">
  <g id="height" transform="translate(-9.18 -1.456)">
    <circle id="Ellipse_1" data-name="Ellipse 1" cx="2.384" cy="2.384" r="2.384" transform="translate(12.82 4.827) rotate(-45)" fill="#083770"/>
    <path id="Path_2" data-name="Path 2" d="M26.486,4H19.732a.412.412,0,0,0,0,.822h2.376v1.9h1.318a.412.412,0,0,1,0,.822H22.109v1.57h2.384a.412.412,0,0,1,0,.822H22.109v1.57h1.318a.412.412,0,0,1,0,.822H22.109V13.9h2.384a.412.412,0,0,1,0,.822H22.109v1.57h1.318a.412.412,0,0,1,0,.822H22.109v1.57h2.384a.412.412,0,0,1,0,.822H22.109v1.57h1.318a.412.412,0,0,1,0,.822H22.109v1.57h2.384a.412.412,0,0,1,0,.822H22.109v1.9H18.628a1.666,1.666,0,0,0,.19-.773V18.725a1.306,1.306,0,0,0,.589.144,1.406,1.406,0,0,0,1.361-1.447V12.593A2.536,2.536,0,0,0,18.31,9.988H14.08a2.539,2.539,0,0,0-2.462,2.605v4.829a1.409,1.409,0,0,0,1.365,1.447,1.228,1.228,0,0,0,.585-.144v6.695a1.666,1.666,0,0,0,.19.773H9.568a.412.412,0,0,0,0,.822H26.486a.4.4,0,0,0,.388-.411V4.411A.4.4,0,0,0,26.486,4Z" transform="translate(0 -1.558)" fill="#083770"/>
  </g>
</svg>
