<svg xmlns="http://www.w3.org/2000/svg" width="40.227" height="41.376" viewBox="0 0 40.227 41.376">
  <path id="Fill_1" data-name="Fill 1" d="M29,41.376a.929.929,0,0,1-.935-.919V35.676l-4.677-2.622a.886.886,0,0,1-.468-.781v-5.1l-4.21-2.437L14.5,27.171V35.4a5.888,5.888,0,0,1-1.778,4.229,6.172,6.172,0,0,1-8.606,0A5.888,5.888,0,0,1,2.339,35.4V6.3A3.23,3.23,0,0,1,0,3.218,3.174,3.174,0,0,1,.953.937,3.286,3.286,0,0,1,3.274,0h10.29a3.286,3.286,0,0,1,2.321.937,3.174,3.174,0,0,1,.953,2.281A3.23,3.23,0,0,1,14.5,6.3v7.863L18.71,16.6l4.21-2.437V9.056a.942.942,0,0,1,.468-.78l4.677-2.62V.919a.936.936,0,0,1,1.872,0V5.7l4.677,2.622a.884.884,0,0,1,.468.781v5.1l4.677,2.713a.89.89,0,0,1,.468.781v5.976a.945.945,0,0,1-.468.781l-4.677,2.713V32.32a.945.945,0,0,1-.468.781l-4.677,2.62v4.736A.929.929,0,0,1,29,41.376ZM4.21,30.8v4.6a4.21,4.21,0,0,0,8.42,0V6.437H4.21v4.138H7.016a.92.92,0,1,1,0,1.839H4.21v2.758H7.016a.92.92,0,1,1,0,1.84H4.21v2.758H7.016a.92.92,0,1,1,0,1.839H4.21v2.758H7.016a.92.92,0,1,1,0,1.84H4.21v2.758H7.016a.92.92,0,1,1,0,1.839ZM29,24.779l-4.21,2.437v4.552l4.069,2.253h.282l4.068-2.253V27.216Zm5.239-8.917-4.3,2.389v4.874l4.3,2.437,4.117-2.392V18.25Zm-10.476-.047-4.117,2.392V23.17l4.117,2.345,4.3-2.391V18.206Zm-9.262.506v8.735l3.274-1.886V18.206ZM28.86,7.356,24.791,9.608v4.6L29,16.642l4.21-2.436v-4.6L29.142,7.356H28.86ZM3.274,1.839a1.361,1.361,0,0,0-1.4,1.379A1.393,1.393,0,0,0,3.274,4.6h10.29a1.393,1.393,0,0,0,1.4-1.379,1.361,1.361,0,0,0-1.4-1.379Z" fill="#083770"/>
</svg>
