<svg id="Group_1" data-name="Group 1" xmlns="http://www.w3.org/2000/svg" width="23.957" height="22.08" viewBox="0 0 23.957 22.08">
  <g id="notification_1_" data-name="notification (1)" transform="translate(0 0.271)">
    <path id="Path_12" data-name="Path 12" d="M4.493,10.28A8,8,0,0,1,7.118,5.238a.7.7,0,1,0-.936-1.05,9.4,9.4,0,0,0-3.087,5.938.72.72,0,0,0,0,.081v.007a.7.7,0,0,0,1.4.065Z" transform="translate(-3.09 -1.892)" fill="#083770"/>
    <path id="Path_13" data-name="Path 13" d="M27.143,10.117a9.253,9.253,0,0,0-3.093-5.99A.7.7,0,0,0,23.138,5.2a7.634,7.634,0,0,1,2.6,4.994.7.7,0,0,0,.7.7A.725.725,0,0,0,27.143,10.117Z" transform="translate(-8.96 -1.878)" fill="#083770"/>
    <path id="Path_14" data-name="Path 14" d="M20.209,16.451a9.861,9.861,0,0,1-1.3-4.886V10.146A6.427,6.427,0,0,0,14.431,4.1a2.083,2.083,0,0,0,.259-.991,2.111,2.111,0,1,0-4.221,0,2.084,2.084,0,0,0,.259.992,6.538,6.538,0,0,0-4.48,6.259v1.2a9.86,9.86,0,0,1-1.3,4.887,2.352,2.352,0,0,0-.213,2.492,2.089,2.089,0,0,0,1.825,1.052h3.2a2.814,2.814,0,1,0,5.628,0h3.2a2.089,2.089,0,0,0,1.825-1.051A2.406,2.406,0,0,0,20.209,16.451ZM12.579,2.407a.7.7,0,1,1-.7.7A.7.7,0,0,1,12.579,2.407Zm0,18.995a1.408,1.408,0,0,1-1.407-1.407h2.814A1.408,1.408,0,0,1,12.579,21.4Zm6.626-3.164a.692.692,0,0,1-.609.35H6.562a.692.692,0,0,1-.609-.35c-.222-.382.029-.756.218-1.089a11.269,11.269,0,0,0,1.483-5.585v-1.2a5.135,5.135,0,0,1,4.917-5.14A5.023,5.023,0,0,1,17.5,10.146v1.419a11.271,11.271,0,0,0,1.483,5.584c.2.345.447.693.219,1.089Z" transform="translate(-3.497 -1)" fill="#083770"/>
  </g>
  <g id="Oval" transform="translate(10.434)" fill="#fff" stroke="#fc4b6f" stroke-miterlimit="10" stroke-width="2">
    <circle cx="6.761" cy="6.761" r="6.761" stroke="none"/>
    <circle cx="6.761" cy="6.761" r="5.761" fill="none"/>
  </g>
  <text id="_2" data-name="2" transform="translate(15.191 8.618)" fill="#083770" font-size="6" font-family="Avenir-Heavy, 'Avenir \38 5'" font-weight="800"><tspan x="0" y="0">2</tspan></text>
</svg>
