<svg id="ICON" xmlns="http://www.w3.org/2000/svg" width="36.779" height="39.078" viewBox="0 0 36.779 39.078">
  <path id="Fill_1" data-name="Fill 1" d="M24.825,39.078a11.413,11.413,0,0,1-1.681-.121,11.926,11.926,0,0,1-7.561-4.335,8.25,8.25,0,0,1-7.308,4.456A8.334,8.334,0,0,1,0,30.7V8.374A8.334,8.334,0,0,1,8.275,0,8.334,8.334,0,0,1,16.55,8.374v9.889a11.959,11.959,0,0,1,3.821-2.493,11.808,11.808,0,0,1,4.48-.883,11.68,11.68,0,0,1,1.665.12,12.069,12.069,0,0,1,10.261,12.16v.019a11.287,11.287,0,0,1-.118,1.526,10.979,10.979,0,0,1-.313,1.479A11.98,11.98,0,0,1,24.825,39.078ZM1.839,20.469V30.7a6.482,6.482,0,0,0,6.436,6.512A6.482,6.482,0,0,0,14.711,30.7V20.469ZM16.55,28.127h0V30.7a8.436,8.436,0,0,1-.2,1.813,10.027,10.027,0,0,0,17.89-1.825L16.55,28.127Zm0-2.82h0v.942L34.763,28.89l0-.023c.026-.14.054-.284.071-.435.019-.1.029-.2.038-.31,0-.052.01-.1.015-.155L16.55,25.306Zm8.29-8.56a10.067,10.067,0,0,0-8.29,4.373v2.309L34.9,26.088a10.146,10.146,0,0,0-8.645-9.239A9.873,9.873,0,0,0,24.84,16.746ZM8.275,1.861A6.482,6.482,0,0,0,1.839,8.374V18.608H14.711V8.374A6.482,6.482,0,0,0,8.275,1.861Z" transform="translate(0 0)" fill="#083770"/>
  <path id="Fill_3" data-name="Fill 3" d="M.926,0a.926.926,0,1,0,0,1.852,3.7,3.7,0,0,1,3.7,3.7v5.556a.926.926,0,0,0,1.852,0V5.556A5.561,5.561,0,0,0,.926,0" transform="translate(7.508 2.843)" fill="#083770"/>
</svg>
