<svg id="Icon" xmlns="http://www.w3.org/2000/svg" width="38.344" height="38.101" viewBox="0 0 38.344 38.101">
  <path id="Fill_1" data-name="Fill 1" d="M3.595,18.928l15.1-15.1a5.79,5.79,0,0,1,4.072-1.675,6.927,6.927,0,0,1,4.316,1.675,5.79,5.79,0,0,1,0,8.388L20.37,18.928h3.35l4.793-4.793a8.089,8.089,0,0,0,0-11.738A8.265,8.265,0,0,0,22.522,0a7.554,7.554,0,0,0-5.747,2.152L1.675,17.485A5.217,5.217,0,0,0,0,19.649a9.667,9.667,0,0,1,3.595-.721" transform="translate(4.793 0)" fill="#083770"/>
  <path id="Fill_4" data-name="Fill 4" d="M5.759,0,0,5.747H11.271Z" transform="translate(11.739 13.181)" fill="#083770"/>
  <path id="Fill_6" data-name="Fill 6" d="M29.957,16.776H8.387A8.5,8.5,0,0,1,0,8.387,8.5,8.5,0,0,1,8.387,0H29.957a8.5,8.5,0,0,1,8.387,8.387A8.5,8.5,0,0,1,29.957,16.776ZM8.387,4.793H19.172v9.586H29.957a5.927,5.927,0,0,0,5.991-5.992A5.927,5.927,0,0,0,29.957,2.4H8.387A6.151,6.151,0,0,0,2.4,7.664,8.065,8.065,0,0,1,8.387,4.793Z" transform="translate(0 21.325)" fill="#083770"/>
</svg>
